<mxfile host="Electron" modified="2024-06-13T08:04:16.932Z" agent="Mozilla/5.0 (X11; Linux x86_64) AppleWebKit/537.36 (KHTML, like Gecko) draw.io/24.5.3 Chrome/124.0.6367.207 Electron/30.0.6 Safari/537.36" etag="B3R2a1YxGy5AXm5uvp2T" version="24.5.3" type="device">
  <diagram name="Page-1" id="3UFKZAnEB8ansK0Cf9P5">
    <mxGraphModel dx="1114" dy="838" grid="1" gridSize="10" guides="1" tooltips="1" connect="1" arrows="1" fold="1" page="1" pageScale="1" pageWidth="850" pageHeight="1100" math="0" shadow="0">
      <root>
        <mxCell id="0" />
        <mxCell id="1" parent="0" />
        <mxCell id="5BvBw6Kcx2wFL9ISzWlb-2" value="" style="swimlane;startSize=0;" vertex="1" parent="1">
          <mxGeometry y="80" width="330" height="420" as="geometry" />
        </mxCell>
        <mxCell id="5BvBw6Kcx2wFL9ISzWlb-3" value="" style="rounded=0;whiteSpace=wrap;html=1;" vertex="1" parent="5BvBw6Kcx2wFL9ISzWlb-2">
          <mxGeometry width="330" height="80" as="geometry" />
        </mxCell>
        <mxCell id="5BvBw6Kcx2wFL9ISzWlb-4" value="h1" style="rounded=1;whiteSpace=wrap;html=1;" vertex="1" parent="5BvBw6Kcx2wFL9ISzWlb-2">
          <mxGeometry x="40" y="20" width="200" height="40" as="geometry" />
        </mxCell>
        <mxCell id="5BvBw6Kcx2wFL9ISzWlb-5" value="" style="rounded=1;whiteSpace=wrap;html=1;" vertex="1" parent="5BvBw6Kcx2wFL9ISzWlb-2">
          <mxGeometry x="260" y="20" width="40" height="40" as="geometry" />
        </mxCell>
        <mxCell id="5BvBw6Kcx2wFL9ISzWlb-6" value="" style="endArrow=none;html=1;rounded=0;" edge="1" parent="5BvBw6Kcx2wFL9ISzWlb-2">
          <mxGeometry width="50" height="50" relative="1" as="geometry">
            <mxPoint x="265" y="30" as="sourcePoint" />
            <mxPoint x="295" y="30" as="targetPoint" />
          </mxGeometry>
        </mxCell>
        <mxCell id="5BvBw6Kcx2wFL9ISzWlb-7" value="" style="endArrow=none;html=1;rounded=0;" edge="1" parent="5BvBw6Kcx2wFL9ISzWlb-2">
          <mxGeometry width="50" height="50" relative="1" as="geometry">
            <mxPoint x="265" y="39.83" as="sourcePoint" />
            <mxPoint x="295" y="39.83" as="targetPoint" />
          </mxGeometry>
        </mxCell>
        <mxCell id="5BvBw6Kcx2wFL9ISzWlb-8" value="" style="endArrow=none;html=1;rounded=0;" edge="1" parent="5BvBw6Kcx2wFL9ISzWlb-2">
          <mxGeometry width="50" height="50" relative="1" as="geometry">
            <mxPoint x="265" y="50" as="sourcePoint" />
            <mxPoint x="295" y="50" as="targetPoint" />
          </mxGeometry>
        </mxCell>
        <mxCell id="5BvBw6Kcx2wFL9ISzWlb-9" value="" style="rounded=1;whiteSpace=wrap;html=1;" vertex="1" parent="5BvBw6Kcx2wFL9ISzWlb-2">
          <mxGeometry x="30" y="110" width="280" height="40" as="geometry" />
        </mxCell>
        <mxCell id="5BvBw6Kcx2wFL9ISzWlb-19" value="" style="rounded=1;whiteSpace=wrap;html=1;" vertex="1" parent="5BvBw6Kcx2wFL9ISzWlb-2">
          <mxGeometry x="30" y="360" width="280" height="40" as="geometry" />
        </mxCell>
        <mxCell id="5BvBw6Kcx2wFL9ISzWlb-18" value="" style="rounded=1;whiteSpace=wrap;html=1;" vertex="1" parent="5BvBw6Kcx2wFL9ISzWlb-2">
          <mxGeometry x="30" y="300" width="280" height="40" as="geometry" />
        </mxCell>
        <mxCell id="5BvBw6Kcx2wFL9ISzWlb-17" value="" style="rounded=1;whiteSpace=wrap;html=1;" vertex="1" parent="5BvBw6Kcx2wFL9ISzWlb-2">
          <mxGeometry x="30" y="240" width="280" height="40" as="geometry" />
        </mxCell>
        <mxCell id="5BvBw6Kcx2wFL9ISzWlb-16" value="" style="rounded=1;whiteSpace=wrap;html=1;" vertex="1" parent="5BvBw6Kcx2wFL9ISzWlb-2">
          <mxGeometry x="30" y="170" width="280" height="40" as="geometry" />
        </mxCell>
      </root>
    </mxGraphModel>
  </diagram>
</mxfile>
